<svg width="484" height="484" viewBox="0 0 484 484" fill="none" xmlns="http://www.w3.org/2000/svg">
<circle cx="241.63" cy="241.63" r="241.63" fill="#003322"/>
<circle cx="241.63" cy="241.63" r="241.63" fill="#003322"/>
<mask id="mask0_1402_159" style="mask-type:alpha" maskUnits="userSpaceOnUse" x="0" y="0" width="484" height="484">
<circle cx="241.63" cy="241.63" r="241.63" fill="#003322"/>
</mask>
<g mask="url(#mask0_1402_159)">
<path d="M183.504 309.413L377.499 359.252L412.332 323.346L355.233 275.893L407.205 192.828L326.832 241.06L227.984 156.147C227.984 156.147 84.2058 229.502 71.7944 309.413C62.1828 371.298 116.951 495.587 116.951 495.587L324.964 499.337C324.964 499.337 305.036 418.722 286.152 394.864C253.781 353.966 183.504 309.413 183.504 309.413ZM183.504 309.413C183.504 309.413 246.478 299.332 263.849 275.893" stroke="#00B277" stroke-width="22.2189"/>
</g>
</svg>
